PathFileType	4	(X/Y/Z)	SUBJ11_3_walk_RCNL2025.trc
DataRate	CameraRate	NumFrames	NumMarkers	Units	OrigDataRate	OrigDataStartFrame	OrigNumFrames
100	100	10	25	mm	100	325	432
Frame#	Time	R_Shoulder			L_Shoulder			C7			J_Notch			R_Elbow			L_Elbow			R_Wrist			L_Wrist			R_Asis			L_Asis			Sacral			Thoracic			Sternum			R_Thigh_Lateral			R_Knee_Lateral			R_Shank_Lateral			R_Ankle_Lateral			R_Heel			R_Toe			L_Thigh_Lateral			L_Knee_Lateral			L_Shank_Lateral			L_Ankle_Lateral			L_Heel			L_Toe		
		X1	Y1	Z1	X2	Y2	Z2	X3	Y3	Z3	X4	Y4	Z4	X5	Y5	Z5	X6	Y6	Z6	X7	Y7	Z7	X8	Y8	Z8	X9	Y9	Z9	X10	Y10	Z10	X11	Y11	Z11	X12	Y12	Z12	X13	Y13	Z13	X14	Y14	Z14	X15	Y15	Z15	X16	Y16	Z16	X17	Y17	Z17	X18	Y18	Z18	X19	Y19	Z19	X20	Y20	Z20	X21	Y21	Z21	X22	Y22	Z22	X23	Y23	Z23	X24	Y24	Z24	X25	Y25	Z25
325	3.24000000	1857.022705	1435.787720	47.872303	1851.828857	1420.016235	-351.152893	1808.222290	1475.653442	-148.794830	1956.463501	1374.614258	-144.421188	1809.271362	1099.116699	147.134445	1808.565430	1073.104736	-415.874023	1899.799255	852.397339	145.517056	1859.073853	814.020691	-396.520615	1926.525513	953.625244	12.892694	1926.548096	953.642944	-282.685150	1750.510742	973.359558	-142.135529	1733.662476	1292.344116	-144.700455	2021.563599	1176.339966	-140.856155	1867.522949	610.173035	88.135788	1868.358032	462.685486	42.141155	1708.029419	338.390930	73.385361	1549.837158	216.841110	5.826301	1515.693604	250.688599	-53.478916	1596.407471	82.208145	-11.524802	1896.254150	608.049377	-352.781616	1958.309692	462.973511	-274.366730	1964.757690	251.584106	-305.517914	1971.569214	58.798756	-235.466537	1915.966919	50.062210	-182.509415	2106.922852	41.411118	-201.549576
326	3.25000000	1866.030029	1437.849731	46.713787	1862.635620	1422.565796	-352.450989	1818.273804	1478.088013	-150.300995	1966.312134	1376.985718	-145.312485	1816.788818	1100.926758	144.701538	1824.195190	1075.234009	-418.485046	1904.508301	853.251373	142.939285	1881.569763	817.568878	-398.034485	1937.461914	956.533325	11.034564	1936.536377	956.301697	-284.135620	1761.029541	975.537537	-143.409012	1743.627441	1294.665527	-146.683517	2031.367676	1178.722534	-141.716248	1884.519531	612.736023	86.385117	1889.581665	465.841125	40.568626	1729.630737	341.702087	70.636917	1572.235596	219.480499	2.177772	1537.431641	252.450211	-57.430241	1621.234741	86.060417	-13.875370	1901.888184	609.534363	-353.532196	1960.408936	463.199127	-274.512451	1965.107056	251.669724	-305.826233	1971.474487	58.767494	-235.652267	1915.891235	50.126904	-182.665878	2106.814941	41.407890	-201.582550
327	3.26000000	1874.911743	1439.738281	45.589485	1873.362549	1425.030762	-353.701935	1828.225708	1480.366577	-151.790161	1976.064575	1379.221680	-146.152451	1824.190186	1102.629761	142.332214	1839.933960	1077.366821	-421.082123	1909.269043	854.096222	140.465778	1904.119751	821.320221	-399.441544	1948.376587	959.324585	9.128621	1946.364746	958.823669	-285.566193	1771.837524	977.379700	-144.289291	1753.526855	1296.810791	-148.671310	2041.107544	1181.005249	-142.594986	1901.616577	615.303589	84.753288	1910.513062	468.982758	38.910324	1751.576050	344.057007	67.935829	1595.389038	220.628586	-1.418980	1559.602783	252.741241	-61.044041	1647.454590	88.872177	-16.826702	1907.368164	611.019592	-354.251129	1962.353027	463.421814	-274.598450	1965.523438	251.790955	-306.110413	1971.380127	58.733742	-235.830841	1915.814453	50.194130	-182.824097	2106.703857	41.404743	-201.620087
328	3.27000000	1883.714600	1441.438354	44.492653	1884.006470	1427.394043	-354.894592	1838.086670	1482.461060	-153.255554	1985.740112	1381.294678	-146.953537	1831.474976	1104.219116	140.030945	1855.776489	1079.493530	-423.647705	1914.088684	854.914307	138.093868	1926.685181	825.253693	-400.738312	1959.245850	961.940002	7.184714	1956.042114	961.171997	-286.993256	1783.103149	978.812073	-144.641113	1763.373901	1298.753784	-150.639755	2050.800781	1183.157104	-143.519180	1918.798706	617.834229	83.232605	1931.165283	472.004700	37.157047	1773.915771	345.324310	65.303032	1619.270386	220.297165	-4.929922	1582.224854	251.598450	-64.296097	1674.859863	90.591476	-20.311913	1912.648804	612.431396	-354.903442	1964.197021	463.635925	-274.626434	1965.995972	251.934311	-306.347809	1971.290405	58.694645	-235.981033	1915.740967	50.262871	-182.966370	2106.595459	41.403618	-201.656601
329	3.28000000	1892.483398	1442.933228	43.420952	1894.564453	1429.633789	-356.020325	1847.868164	1484.346558	-154.681427	1995.355957	1383.177490	-147.726761	1838.633545	1105.677979	137.801361	1871.710815	1081.599243	-426.166840	1918.970459	855.683746	135.818245	1949.230225	829.340820	-401.922073	1970.049194	964.331909	5.224076	1965.587524	963.308228	-288.426208	1794.992798	979.784363	-144.322952	1773.176147	1300.479004	-152.565384	2060.462646	1185.144287	-144.505630	1936.010132	620.299438	81.807449	1951.543457	474.825775	35.301247	1796.664185	345.464539	62.732037	1643.859619	218.539642	-8.341003	1605.313354	249.057037	-67.204300	1703.321899	91.249374	-24.223444	1917.764893	613.705505	-355.472717	1965.999023	463.836304	-274.597412	1966.498169	252.083221	-306.524109	1971.209839	58.650154	-236.087051	1915.675049	50.332718	-183.076736	2106.495361	41.404316	-201.687073
330	3.29000000	1901.261597	1444.206665	42.375526	1905.033081	1431.724976	-357.074738	1857.583252	1486.004883	-156.047714	2004.926880	1384.845093	-148.482910	1845.656372	1106.983521	135.647568	1887.719971	1083.664429	-428.627136	1923.916443	856.380585	133.632301	1971.721802	833.549072	-402.993286	1980.774658	966.466736	3.275703	1975.027100	965.196838	-289.865875	1807.608398	980.291260	-143.222488	1782.937622	1301.980591	-154.428085	2070.105225	1186.934326	-145.561218	1953.171631	622.679138	80.458939	1971.637939	477.395996	33.336067	1819.798462	344.536224	60.193104	1669.142212	215.435989	-11.656059	1628.894043	245.151489	-69.823151	1732.757080	90.925766	-28.416443	1922.802368	614.811096	-355.965210	1967.812378	464.017426	-274.515472	1967.010376	252.221848	-306.634308	1971.143677	58.605038	-236.142441	1915.620605	50.403973	-183.143890	2106.407959	41.404865	-201.707123
331	3.30000000	1910.088867	1445.244141	41.359837	1915.409668	1433.644043	-358.058350	1867.246826	1487.427490	-157.336426	2014.465088	1386.276367	-149.233566	1852.538452	1108.110840	133.572083	1903.781250	1085.667847	-431.019440	1928.930176	856.980530	131.528461	1994.127686	837.846161	-403.957809	1991.416016	968.324280	1.370577	1984.390869	966.809326	-291.304932	1820.898804	980.386230	-141.321320	1792.658691	1303.260132	-156.211502	2079.737793	1188.500732	-146.684448	1970.199097	624.958862	79.168686	1991.421143	479.699005	31.256842	1843.268555	342.675720	57.645927	1695.106445	211.087479	-14.890690	1653.010742	239.924042	-72.235756	1763.096069	89.721535	-32.720604	1927.859741	615.750793	-356.401886	1969.683960	464.174133	-274.389893	1967.536499	252.339554	-306.681091	1971.097656	58.566128	-236.147842	1915.579956	50.477928	-183.163406	2106.338135	41.402729	-201.713699
332	3.31000000	1918.998901	1446.035278	40.378433	1925.694702	1435.369629	-358.976624	1876.875244	1488.613647	-158.535645	2023.980591	1387.455322	-149.990570	1859.284302	1109.038940	131.574356	1919.867920	1087.589844	-433.337952	1934.016296	857.460022	129.498230	2016.414856	842.201904	-404.826218	2001.969482	969.894958	-0.462942	1993.711548	968.128418	-292.729462	1834.595947	980.177795	-138.776306	1802.338257	1304.323975	-157.902191	2089.367676	1189.824463	-147.868454	1987.018188	627.128113	77.918472	2010.852905	481.748993	29.064795	1867.003784	340.061920	55.054729	1721.730103	205.613922	-18.064001	1677.727173	233.438568	-74.540802	1794.271729	87.747238	-36.961773	1933.020752	616.539795	-356.806335	1971.654663	464.303253	-274.234344	1968.106079	252.432129	-306.673981	1971.077026	58.537762	-236.104950	1915.554077	50.557014	-183.138641	2106.289062	41.396229	-201.706207
333	3.32000000	1928.015259	1446.575928	39.435139	1935.892212	1436.885132	-359.838623	1886.485840	1489.568726	-159.641174	2033.483154	1388.372681	-150.763702	1865.916260	1109.755615	129.652466	1935.949463	1089.414062	-435.577728	1939.179749	857.796570	127.533279	2038.548584	846.589386	-405.610764	2012.431519	971.177185	-2.201331	2003.020874	969.148804	-294.121674	1848.230103	979.821350	-135.968628	1811.977051	1305.179810	-159.490326	2098.999268	1190.895264	-149.104324	2003.572632	629.178467	76.688156	2029.893921	483.580719	26.770643	1890.918945	336.883636	52.400131	1748.974731	199.152405	-21.189898	1703.119507	225.785721	-76.837906	1826.219971	85.122444	-40.985443	1938.345215	617.187866	-357.197632	1973.760376	464.404022	-274.064789	1968.765625	252.499786	-306.627594	1971.084717	58.520176	-236.014160	1915.543335	50.644070	-183.079208	2106.263428	41.385456	-201.686493
334	3.33000000	1937.148071	1446.870605	38.530983	1946.010132	1438.179443	-360.654205	1896.096069	1490.300659	-160.655533	2042.982178	1389.025879	-151.559158	1872.476196	1110.258423	127.804214	1951.992798	1091.127686	-437.731598	1944.424927	857.970428	125.626945	2060.492249	850.985809	-406.321976	2022.799927	972.175415	-3.827391	2012.345215	969.875793	-295.464142	1861.208130	979.504578	-133.466797	1821.578857	1305.835815	-160.969925	2108.636719	1191.709106	-150.382812	2019.825684	631.101440	75.456230	2048.516113	485.236237	24.395288	1914.918579	333.318665	49.685345	1776.799194	191.858444	-24.267704	1729.261230	217.077209	-79.217094	1858.881226	81.974808	-44.672932	1943.868896	617.697815	-357.589844	1976.030151	464.476868	-273.897339	1969.562500	252.544952	-306.558197	1971.121704	58.510815	-235.875809	1915.548096	50.741451	-182.997284	2106.262207	41.371998	-201.657166
